<svg width="7" height="7" viewBox="0 0 7 7" fill="none" xmlns="http://www.w3.org/2000/svg">
<path d="M6.99998 3.49999C6.99998 4.02209 6.91309 4.49907 6.7393 4.93093C6.57194 5.35634 6.33378 5.72374 6.02481 6.03314C5.72229 6.33608 5.35539 6.57457 4.92413 6.7486C4.49286 6.91619 4.01654 6.99998 3.49516 6.99998C2.97379 6.99998 2.49747 6.91619 2.0662 6.7486C1.64138 6.57457 1.27448 6.33608 0.965515 6.03314C0.662987 5.72374 0.424827 5.35634 0.251034 4.93093C0.083678 4.49907 0 4.02209 0 3.49999C0 2.97789 0.083678 2.50414 0.251034 2.07872C0.424827 1.64687 0.662987 1.27624 0.965515 0.966849C1.27448 0.657457 1.64138 0.418968 2.0662 0.251381C2.49747 0.0837936 2.97379 0 3.49516 0C4.01654 0 4.49286 0.0837936 4.92413 0.251381C5.35539 0.418968 5.72229 0.657457 6.02481 0.966849C6.33378 1.27624 6.57194 1.64687 6.7393 2.07872C6.91309 2.50414 6.99998 2.97789 6.99998 3.49999ZM6.35309 3.49999C6.35309 3.06813 6.2855 2.67817 6.15033 2.33011C6.01516 1.97559 5.82206 1.67265 5.57102 1.42127C5.31999 1.16989 5.01746 0.976517 4.66344 0.841158C4.31585 0.705799 3.92643 0.63812 3.49516 0.63812C3.0639 0.63812 2.67126 0.705799 2.31724 0.841158C1.96965 0.976517 1.67034 1.16989 1.41931 1.42127C1.16827 1.67265 0.97517 1.97559 0.839998 2.33011C0.704826 2.67817 0.63724 3.06813 0.63724 3.49999C0.63724 3.93185 0.704826 4.32504 0.839998 4.67955C0.97517 5.02761 1.16827 5.32734 1.41931 5.57872C1.67034 5.8301 1.96965 6.02347 2.31724 6.15883C2.67126 6.29419 3.0639 6.36187 3.49516 6.36187C3.92643 6.36187 4.31585 6.29419 4.66344 6.15883C5.01746 6.02347 5.31999 5.8301 5.57102 5.57872C5.82206 5.32734 6.01516 5.02761 6.15033 4.67955C6.2855 4.32504 6.35309 3.93185 6.35309 3.49999ZM2.12413 5.35634V1.5953H3.87172C4.2708 1.5953 4.58942 1.71777 4.82758 1.9627C5.07217 2.20764 5.19447 2.53637 5.19447 2.94889C5.19447 3.24539 5.12689 3.49999 4.99171 3.7127C4.85654 3.92541 4.67309 4.0801 4.44137 4.17679L5.21378 5.35634H4.42206L3.71723 4.28314H2.79999V5.35634H2.12413ZM3.80413 3.66436C4.02298 3.66436 4.19677 3.5999 4.32551 3.47099C4.46068 3.33563 4.52827 3.15515 4.52827 2.92955C4.52827 2.71684 4.46068 2.54604 4.32551 2.41712C4.19677 2.28176 4.02298 2.21408 3.80413 2.21408H2.79999V3.66436H3.80413Z" fill="white"/>
</svg>
