<svg width="7" height="7" viewBox="0 0 7 7" fill="none" xmlns="http://www.w3.org/2000/svg">
<path d="M7 3.5C7 4.0221 6.9131 4.49908 6.73931 4.93094C6.57195 5.35635 6.33379 5.72376 6.02483 6.03315C5.7223 6.3361 5.3554 6.57459 4.92414 6.74862C4.49287 6.91621 4.01655 7 3.49517 7C2.97379 7 2.49747 6.91621 2.06621 6.74862C1.64138 6.57459 1.27448 6.3361 0.965517 6.03315C0.662989 5.72376 0.424828 5.35635 0.251034 4.93094C0.0836782 4.49908 0 4.0221 0 3.5C0 2.9779 0.0836782 2.50414 0.251034 2.07873C0.424828 1.64687 0.662989 1.27624 0.965517 0.966851C1.27448 0.657459 1.64138 0.418969 2.06621 0.251381C2.49747 0.0837938 2.97379 0 3.49517 0C4.01655 0 4.49287 0.0837938 4.92414 0.251381C5.3554 0.418969 5.7223 0.657459 6.02483 0.966851C6.33379 1.27624 6.57195 1.64687 6.73931 2.07873C6.9131 2.50414 7 2.9779 7 3.5ZM6.3531 3.5C6.3531 3.06814 6.28552 2.67818 6.15035 2.33011C6.01517 1.9756 5.82207 1.67265 5.57103 1.42127C5.32 1.16989 5.01747 0.976519 4.66345 0.84116C4.31586 0.705801 3.92644 0.638121 3.49517 0.638121C3.06391 0.638121 2.67126 0.705801 2.31724 0.84116C1.96966 0.976519 1.67034 1.16989 1.41931 1.42127C1.16828 1.67265 0.975172 1.9756 0.84 2.33011C0.704828 2.67818 0.637241 3.06814 0.637241 3.5C0.637241 3.93186 0.704828 4.32505 0.84 4.67956C0.975172 5.02762 1.16828 5.32735 1.41931 5.57873C1.67034 5.83011 1.96966 6.02348 2.31724 6.15884C2.67126 6.2942 3.06391 6.36188 3.49517 6.36188C3.92644 6.36188 4.31586 6.2942 4.66345 6.15884C5.01747 6.02348 5.32 5.83011 5.57103 5.57873C5.82207 5.32735 6.01517 5.02762 6.15035 4.67956C6.28552 4.32505 6.3531 3.93186 6.3531 3.5ZM2.12414 5.35635V1.5953H3.87172C4.2708 1.5953 4.58943 1.71777 4.82759 1.96271C5.07218 2.20764 5.19448 2.53637 5.19448 2.9489C5.19448 3.2454 5.1269 3.5 4.99173 3.71271C4.85655 3.92541 4.6731 4.08011 4.44138 4.1768L5.21379 5.35635H4.42207L3.71724 4.28315H2.8V5.35635H2.12414ZM3.80414 3.66436C4.02299 3.66436 4.19678 3.59991 4.32552 3.47099C4.46069 3.33564 4.52828 3.15516 4.52828 2.92956C4.52828 2.71685 4.46069 2.54604 4.32552 2.41713C4.19678 2.28177 4.02299 2.21409 3.80414 2.21409H2.8V3.66436H3.80414Z" fill="white"/>
</svg>
