<svg width="23" height="23" viewBox="0 0 23 23" fill="none" xmlns="http://www.w3.org/2000/svg">
<path fill-rule="evenodd" clip-rule="evenodd" d="M3.02632 1.21053C2.02348 1.21053 1.21053 2.02348 1.21053 3.02632V19.9737C1.21053 20.8967 1.8992 21.6588 2.79075 21.7743L15.9141 8.65096C16.1505 8.41459 16.5337 8.41459 16.7701 8.65096L21.7895 13.6703V3.02632C21.7895 2.02348 20.9765 1.21053 19.9737 1.21053H3.02632ZM21.7895 15.3823L16.3421 9.93492L4.48755 21.7895H19.9737C20.9765 21.7895 21.7895 20.9765 21.7895 19.9737V15.3823ZM0 3.02632C0 1.35493 1.35493 0 3.02632 0H19.9737C21.6451 0 23 1.35493 23 3.02632V19.9737C23 21.6451 21.6451 23 19.9737 23H3.02632C1.35493 23 0 21.6451 0 19.9737V3.02632ZM7.26316 6.05263C6.5946 6.05263 6.05263 6.5946 6.05263 7.26316C6.05263 7.93171 6.5946 8.47368 7.26316 8.47368C7.93171 8.47368 8.47368 7.93171 8.47368 7.26316C8.47368 6.5946 7.93171 6.05263 7.26316 6.05263ZM4.84211 7.26316C4.84211 5.92605 5.92605 4.84211 7.26316 4.84211C8.60027 4.84211 9.68421 5.92605 9.68421 7.26316C9.68421 8.60027 8.60027 9.68421 7.26316 9.68421C5.92605 9.68421 4.84211 8.60027 4.84211 7.26316Z" fill="white"/>
</svg>
