<svg width="32" height="32" viewBox="0 0 32 32" fill="none" xmlns="http://www.w3.org/2000/svg">
<path d="M17.3699 2.66642C18.8705 2.6689 19.6309 2.67685 20.2879 2.69641L20.5467 2.70486C20.8457 2.71549 21.1406 2.72882 21.4962 2.74549C22.915 2.81105 23.8829 3.03549 24.7329 3.36549C25.6117 3.70438 26.3539 4.16216 27.095 4.90328C27.835 5.64438 28.2929 6.38882 28.6329 7.26549C28.9617 8.11438 29.1862 9.08328 29.2529 10.5022C29.2687 10.8577 29.2815 11.1526 29.2921 11.4516L29.3005 11.7104C29.3199 12.3674 29.3289 13.1279 29.3317 14.6285L29.3327 15.6226C29.3329 15.7441 29.3329 15.8694 29.3329 15.9988L29.3327 16.3749L29.3319 17.3692C29.3294 18.8697 29.3215 19.6302 29.3019 20.2872L29.2934 20.546C29.2829 20.845 29.2695 21.14 29.2529 21.4954C29.1873 22.9144 28.9617 23.8821 28.6329 24.7321C28.2939 25.611 27.835 26.3533 27.095 27.0944C26.3539 27.8344 25.6083 28.2921 24.7329 28.6321C23.8829 28.961 22.915 29.1854 21.4962 29.2521C21.1406 29.268 20.8457 29.2809 20.5467 29.2913L20.2879 29.2997C19.6309 29.3193 18.8705 29.3281 17.3699 29.331L16.3757 29.3321C16.2542 29.3321 16.1289 29.3321 15.9995 29.3321H15.6234L14.6291 29.3312C13.1286 29.3288 12.3681 29.3208 11.7111 29.3012L11.4523 29.2928C11.1533 29.2821 10.8584 29.2688 10.5029 29.2521C9.08396 29.1866 8.1173 28.961 7.26619 28.6321C6.3884 28.2933 5.64507 27.8344 4.90396 27.0944C4.16286 26.3533 3.70619 25.6077 3.36619 24.7321C3.03619 23.8821 2.81286 22.9144 2.74619 21.4954C2.73035 21.14 2.71743 20.845 2.70696 20.546L2.69858 20.2872C2.67907 19.6302 2.67018 18.8697 2.6673 17.3692L2.66712 14.6285C2.6696 13.1279 2.67754 12.3674 2.6971 11.7104L2.70556 11.4516C2.71619 11.1526 2.72952 10.8577 2.74619 10.5022C2.81174 9.08216 3.03619 8.11549 3.36619 7.26549C3.70507 6.38772 4.16286 5.64438 4.90396 4.90328C5.64507 4.16216 6.38952 3.70549 7.26619 3.36549C8.11619 3.03549 9.08286 2.81216 10.5029 2.74549C10.8584 2.72966 11.1533 2.71674 11.4523 2.70628L11.7111 2.69789C12.3681 2.67837 13.1286 2.66948 14.6291 2.6666L17.3699 2.66642ZM15.9995 9.33216C12.3157 9.33216 9.33286 12.3182 9.33286 15.9988C9.33286 19.6826 12.3189 22.6654 15.9995 22.6654C19.6834 22.6654 22.6662 19.6794 22.6662 15.9988C22.6662 12.315 19.6801 9.33216 15.9995 9.33216ZM15.9995 11.9988C18.2088 11.9988 19.9995 13.789 19.9995 15.9988C19.9995 18.208 18.2093 19.9988 15.9995 19.9988C13.7904 19.9988 11.9995 18.2086 11.9995 15.9988C11.9995 13.7896 13.7897 11.9988 15.9995 11.9988ZM22.9995 7.33216C22.0805 7.33216 21.3329 8.0787 21.3329 8.99769C21.3329 9.91669 22.0794 10.6644 22.9995 10.6644C23.9185 10.6644 24.6662 9.91785 24.6662 8.99769C24.6662 8.0787 23.9173 7.33101 22.9995 7.33216Z" fill="#1F1F1F"/>
</svg>
