<svg width="32" height="32" viewBox="0 0 32 32" fill="none" xmlns="http://www.w3.org/2000/svg">
<path d="M17.3697 2.66667C18.8703 2.66915 19.6307 2.67709 20.2877 2.69665L20.5465 2.70511C20.8455 2.71573 21.1404 2.72907 21.496 2.74573C22.9148 2.81129 23.8827 3.03573 24.7327 3.36573C25.6115 3.70463 26.3537 4.1624 27.0948 4.90352C27.8348 5.64463 28.2927 6.38907 28.6327 7.26573C28.9615 8.11463 29.186 9.08352 29.2527 10.5024C29.2685 10.858 29.2813 11.1529 29.2919 11.4519L29.3003 11.7107C29.3197 12.3677 29.3287 13.1282 29.3315 14.6288L29.3325 15.6229C29.3327 15.7444 29.3327 15.8697 29.3327 15.999L29.3325 16.3752L29.3317 17.3694C29.3292 18.87 29.3213 19.6305 29.3017 20.2874L29.2932 20.5462C29.2827 20.8453 29.2693 21.1402 29.2527 21.4957C29.1871 22.9146 28.9615 23.8824 28.6327 24.7324C28.2937 25.6113 27.8348 26.3536 27.0948 27.0946C26.3537 27.8346 25.6081 28.2924 24.7327 28.6324C23.8827 28.9613 22.9148 29.1857 21.496 29.2524C21.1404 29.2682 20.8455 29.2812 20.5465 29.2916L20.2877 29.3C19.6307 29.3196 18.8703 29.3284 17.3697 29.3313L16.3755 29.3324C16.254 29.3324 16.1287 29.3324 15.9993 29.3324H15.6232L14.6289 29.3314C13.1284 29.329 12.3679 29.321 11.7109 29.3014L11.4521 29.293C11.1531 29.2824 10.8582 29.269 10.5026 29.2524C9.08375 29.1869 8.11708 28.9613 7.26598 28.6324C6.38819 28.2936 5.64486 27.8346 4.90375 27.0946C4.16264 26.3536 3.70598 25.608 3.36598 24.7324C3.03598 23.8824 2.81264 22.9146 2.74598 21.4957C2.73014 21.1402 2.71722 20.8453 2.70675 20.5462L2.69836 20.2874C2.67886 19.6305 2.66996 18.87 2.66708 17.3694L2.66691 14.6288C2.66939 13.1282 2.67732 12.3677 2.69688 11.7107L2.70535 11.4519C2.71598 11.1529 2.72931 10.858 2.74598 10.5024C2.81152 9.0824 3.03598 8.11573 3.36598 7.26573C3.70486 6.38796 4.16264 5.64463 4.90375 4.90352C5.64486 4.1624 6.38931 3.70573 7.26598 3.36573C8.11598 3.03573 9.08264 2.8124 10.5026 2.74573C10.8582 2.72991 11.1531 2.71699 11.4521 2.70652L11.7109 2.69813C12.3679 2.67861 13.1284 2.66972 14.6289 2.66684L17.3697 2.66667ZM15.9993 9.3324C12.3154 9.3324 9.33264 12.3184 9.33264 15.999C9.33264 19.6829 12.3187 22.6657 15.9993 22.6657C19.6832 22.6657 22.666 19.6797 22.666 15.999C22.666 12.3152 19.6799 9.3324 15.9993 9.3324ZM15.9993 11.9991C18.2085 11.9991 19.9993 13.7893 19.9993 15.999C19.9993 18.2082 18.2091 19.999 15.9993 19.999C13.7901 19.999 11.9993 18.2089 11.9993 15.999C11.9993 13.7898 13.7895 11.9991 15.9993 11.9991ZM22.9993 7.3324C22.0803 7.3324 21.3327 8.07895 21.3327 8.99793C21.3327 9.91693 22.0792 10.6646 22.9993 10.6646C23.9183 10.6646 24.666 9.91809 24.666 8.99793C24.666 8.07895 23.9171 7.33125 22.9993 7.3324Z" fill="#1F1F1F"/>
</svg>
