<svg width="32" height="32" viewBox="0 0 32 32" fill="none" xmlns="http://www.w3.org/2000/svg">
<path d="M25.3853 25.3912H21.4365V19.2033C21.4365 17.7278 21.4065 15.829 19.3787 15.829C17.3199 15.829 17.0053 17.4346 17.0053 19.0945V25.3912H13.0565V12.6667H16.8498V14.4011H16.9009C17.431 13.4011 18.7199 12.3456 20.6453 12.3456C24.6465 12.3456 25.3865 14.979 25.3865 18.4067L25.3853 25.3912ZM8.5965 10.9256C7.32539 10.9256 6.30428 9.89675 6.30428 8.63119C6.30428 7.36675 7.3265 6.33897 8.5965 6.33897C9.86317 6.33897 10.8898 7.36675 10.8898 8.63119C10.8898 9.89675 9.86206 10.9256 8.5965 10.9256ZM10.5765 25.3912H6.6165V12.6667H10.5765V25.3912ZM27.3609 2.66675H4.63428C3.5465 2.66675 2.6665 3.52675 2.6665 4.58786V27.4124C2.6665 28.4745 3.5465 29.3334 4.63428 29.3334H27.3576C28.4443 29.3334 29.3332 28.4745 29.3332 27.4124V4.58786C29.3332 3.52675 28.4443 2.66675 27.3576 2.66675H27.3609Z" fill="#1F1F1F"/>
</svg>
