<svg width="32" height="32" viewBox="0 0 32 32" fill="none" xmlns="http://www.w3.org/2000/svg">
<path d="M25.3855 25.3909H21.4366V19.2031C21.4366 17.7275 21.4067 15.8287 19.3788 15.8287C17.32 15.8287 17.0055 17.4344 17.0055 19.0942V25.3909H13.0566V12.6665H16.8499V14.4009H16.9011C17.4311 13.4009 18.72 12.3454 20.6455 12.3454C24.6467 12.3454 25.3867 14.9788 25.3867 18.4065L25.3855 25.3909ZM8.59666 10.9254C7.32555 10.9254 6.30443 9.8965 6.30443 8.63095C6.30443 7.3665 7.32666 6.33873 8.59666 6.33873C9.86332 6.33873 10.89 7.3665 10.89 8.63095C10.89 9.8965 9.86221 10.9254 8.59666 10.9254ZM10.5767 25.3909H6.61666V12.6665H10.5767V25.3909ZM27.3611 2.6665H4.63443C3.54666 2.6665 2.66666 3.5265 2.66666 4.58762V27.4121C2.66666 28.4742 3.54666 29.3332 4.63443 29.3332H27.3578C28.4445 29.3332 29.3334 28.4742 29.3334 27.4121V4.58762C29.3334 3.5265 28.4445 2.6665 27.3578 2.6665H27.3611Z" fill="#1F1F1F"/>
</svg>
