<svg width="47" height="47" viewBox="0 0 47 47" fill="none" xmlns="http://www.w3.org/2000/svg">
<path d="M13.7084 43.0833C12.6313 43.0833 11.7096 42.7001 10.9432 41.9338C10.1769 41.1674 9.79303 40.245 9.79173 39.1667C9.79042 38.0883 10.1743 37.1665 10.9432 36.4015C11.7122 35.6364 12.6339 35.2526 13.7084 35.25C14.7829 35.2474 15.7052 35.6312 16.4755 36.4015C17.2458 37.1718 17.629 38.0935 17.6251 39.1667C17.6211 40.2398 17.238 41.1622 16.4755 41.9338C15.7131 42.7054 14.7907 43.0885 13.7084 43.0833ZM33.2917 43.0833C32.2146 43.0833 31.2929 42.7001 30.5266 41.9338C29.7602 41.1674 29.3764 40.245 29.3751 39.1667C29.3737 38.0883 29.7576 37.1665 30.5266 36.4015C31.2955 35.6364 32.2172 35.2526 33.2917 35.25C34.3662 35.2474 35.2886 35.6312 36.0588 36.4015C36.8291 37.1718 37.2123 38.0935 37.2084 39.1667C37.2045 40.2398 36.8213 41.1622 36.0588 41.9338C35.2964 42.7054 34.374 43.0885 33.2917 43.0833ZM10.1834 7.83333H39.0688C39.8195 7.83333 40.3907 8.16821 40.7823 8.83796C41.174 9.50771 41.1903 10.1846 40.8313 10.8687L33.8792 23.4021C33.5202 24.0549 33.0391 24.5608 32.4359 24.9198C31.8328 25.2788 31.1715 25.4583 30.4521 25.4583H15.8626L13.7084 29.375H37.2084V33.2917H13.7084C12.2396 33.2917 11.1299 32.6474 10.3792 31.3588C9.62853 30.0702 9.59589 28.7888 10.2813 27.5146L12.9251 22.7167L5.87506 7.83333H1.9584V3.91667H8.32298L10.1834 7.83333Z" fill="#B7B7B7"/>
</svg>
