<svg width="17" height="17" viewBox="0 0 17 17" fill="none" xmlns="http://www.w3.org/2000/svg">
<g clip-path="url(#clip0_0_269)">
<path d="M4.95816 15.5832C4.56858 15.5832 4.23519 15.4446 3.958 15.1674C3.6808 14.8902 3.54197 14.5566 3.5415 14.1666C3.54103 13.7765 3.67986 13.4431 3.958 13.1664C4.23614 12.8897 4.56953 12.7508 4.95816 12.7499C5.3468 12.749 5.68043 12.8878 5.95904 13.1664C6.23765 13.445 6.37624 13.7784 6.37483 14.1666C6.37341 14.5547 6.23481 14.8884 5.95904 15.1674C5.68326 15.4465 5.34964 15.5851 4.95816 15.5832ZM12.0415 15.5832C11.6519 15.5832 11.3185 15.4446 11.0413 15.1674C10.7641 14.8902 10.6253 14.5566 10.6248 14.1666C10.6243 13.7765 10.7632 13.4431 11.0413 13.1664C11.3195 12.8897 11.6528 12.7508 12.0415 12.7499C12.4301 12.749 12.7637 12.8878 13.0424 13.1664C13.321 13.445 13.4596 13.7784 13.4582 14.1666C13.4567 14.5547 13.3181 14.8884 13.0424 15.1674C12.7666 15.4465 12.433 15.5851 12.0415 15.5832ZM3.68317 2.83325H14.1311C14.4026 2.83325 14.6092 2.95438 14.7509 3.19663C14.8925 3.43888 14.8984 3.68372 14.7686 3.93117L12.254 8.46449C12.1241 8.7006 11.9501 8.88359 11.7319 9.01345C11.5138 9.14331 11.2746 9.20824 11.0144 9.20824H5.73733L4.95816 10.6249H13.4582V12.0416H4.95816C4.42691 12.0416 4.02553 11.8085 3.754 11.3424C3.48247 10.8764 3.47067 10.4129 3.71858 9.95199L4.67483 8.21658L2.12483 2.83325H0.70817V1.41659H3.01025L3.68317 2.83325Z" fill="#B7B7B7"/>
</g>
<defs>
<clipPath id="clip0_0_269">
<rect width="16.6723" height="16.6723" fill="white" transform="scale(1.01966)"/>
</clipPath>
</defs>
</svg>
