<svg width="17" height="17" viewBox="0 0 17 17" fill="none" xmlns="http://www.w3.org/2000/svg">
<path d="M4.95851 15.5833C4.56893 15.5833 4.23554 15.4447 3.95835 15.1675C3.68115 14.8903 3.54232 14.5566 3.54185 14.1666C3.54138 13.7765 3.68021 13.4431 3.95835 13.1664C4.23649 12.8897 4.56988 12.7509 4.95851 12.7499C5.34715 12.749 5.68078 12.8878 5.95939 13.1664C6.238 13.445 6.3766 13.7784 6.37518 14.1666C6.37377 14.5548 6.23517 14.8884 5.95939 15.1675C5.68361 15.4466 5.34999 15.5852 4.95851 15.5833ZM12.0419 15.5833C11.6523 15.5833 11.3189 15.4447 11.0417 15.1675C10.7645 14.8903 10.6257 14.5566 10.6252 14.1666C10.6247 13.7765 10.7635 13.4431 11.0417 13.1664C11.3198 12.8897 11.6532 12.7509 12.0419 12.7499C12.4305 12.749 12.7641 12.8878 13.0427 13.1664C13.3213 13.445 13.4599 13.7784 13.4585 14.1666C13.4571 14.5548 13.3185 14.8884 13.0427 15.1675C12.7669 15.4466 12.4333 15.5852 12.0419 15.5833ZM3.68351 2.83326H14.1314C14.403 2.83326 14.6096 2.95438 14.7512 3.19663C14.8929 3.43888 14.8988 3.68373 14.7689 3.93118L12.2543 8.46451C12.1245 8.70062 11.9505 8.88361 11.7323 9.01347C11.5141 9.14333 11.275 9.20826 11.0148 9.20826H5.73768L4.95851 10.6249H13.4585V12.0416H4.95851C4.42726 12.0416 4.02588 11.8086 3.75435 11.3425C3.48282 10.8764 3.47101 10.4129 3.71893 9.95201L4.67518 8.21659L2.12518 2.83326H0.708514V1.41659H3.0106L3.68351 2.83326Z" fill="#B7B7B7"/>
</svg>
