<svg width="54" height="54" viewBox="0 0 54 54" fill="none" xmlns="http://www.w3.org/2000/svg">
<g clip-path="url(#clip0_0_1603)">
<path fill-rule="evenodd" clip-rule="evenodd" d="M24.7265 7.89845C14.177 9.15407 6.64284 18.724 7.89846 29.2735C9.15408 39.8229 18.724 47.3571 29.2735 46.1015C39.823 44.8459 47.3571 35.276 46.1015 24.7265C44.8459 14.177 35.276 6.64283 24.7265 7.89845ZM5.88777 29.5128C4.49998 17.8528 12.8272 7.27555 24.4872 5.88776C36.1471 4.49998 46.7244 12.8272 48.1122 24.4872C49.5 36.1471 41.1727 46.7244 29.5128 48.1122C17.8528 49.5 7.27556 41.1727 5.88777 29.5128ZM21.4415 18.6059C21.7475 18.3921 22.1465 18.364 22.4794 18.533L35.5008 25.1398C35.8027 25.293 36.0081 25.5869 36.0481 25.923C36.0881 26.2592 35.9574 26.5931 35.6999 26.8128L24.5931 36.2915C24.3091 36.5338 23.9147 36.6002 23.567 36.4642C23.2193 36.3281 22.9747 36.0118 22.9305 35.641L21.016 19.5555C20.9719 19.1847 21.1354 18.8198 21.4415 18.6059ZM23.2503 21.1947L24.7176 33.5232L33.2303 26.2584L23.2503 21.1947Z" fill="#FE37A3"/>
</g>
<defs>
<clipPath id="clip0_0_1603">
<rect width="48" height="48" fill="white" transform="translate(0 5.74354) scale(1.01244) rotate(-6.78751)"/>
</clipPath>
</defs>
</svg>
