<svg width="54" height="54" viewBox="0 0 54 54" fill="none" xmlns="http://www.w3.org/2000/svg">
<g clip-path="url(#clip0_0_193)">
<path fill-rule="evenodd" clip-rule="evenodd" d="M24.7265 7.89844C14.177 9.15406 6.6429 18.724 7.89851 29.2734C9.15413 39.8229 18.724 47.357 29.2735 46.1014C39.823 44.8458 47.3571 35.2759 46.1015 24.7264C44.8459 14.177 35.276 6.64282 24.7265 7.89844ZM5.88783 29.5127C4.50004 17.8528 12.8273 7.27554 24.4872 5.88776C36.1471 4.49997 46.7244 12.8272 48.1122 24.4871C49.5 36.1471 41.1728 46.7243 29.5128 48.1121C17.8529 49.4999 7.27561 41.1727 5.88783 29.5127ZM21.4415 18.6059C21.7476 18.3921 22.1465 18.364 22.4795 18.533L35.5008 25.1398C35.8027 25.293 36.0081 25.5869 36.0481 25.923C36.0881 26.2592 35.9575 26.5931 35.7 26.8128L24.5931 36.2914C24.3091 36.5338 23.9147 36.6002 23.567 36.4641C23.2193 36.3281 22.9747 36.0117 22.9306 35.641L21.016 19.5555C20.9719 19.1847 21.1354 18.8198 21.4415 18.6059ZM23.2503 21.1947L24.7177 33.5231L33.2303 26.2584L23.2503 21.1947Z" fill="#FE37A3"/>
</g>
<defs>
<clipPath id="clip0_0_193">
<rect width="48" height="48" fill="white" transform="translate(0 5.74353) scale(1.01244) rotate(-6.78751)"/>
</clipPath>
</defs>
</svg>
